<svg baseProfile="tiny" xmlns="http://www.w3.org/2000/svg" width="1920" height="841.89" viewBox="0 0 1920 841.89"><path d="M812.947 119.693h11.197v588.565h-11.197z"/><path fill="#97BF1F" d="M447.781 263.381l112.388 69.009 17.746 30.89v124.222l-44.694 36.144-88.74 51.266-48.625-17.748-88.727-65.064-6.575-47.32 3.944-87.416 56.526-46.005z"/><path fill="#3C3C3B" d="M664.557 297.268c-8.081-14.485-19.505-24.228-24.435-27.37L478.69 167.62c-9.472-5.989-21.794-9.284-34.696-9.284-12.923 0-25.259 3.302-34.729 9.305L248.289 269.665c-5.207 3.324-16.043 12.648-23.63 26.527-6.774 12.389-10.317 27.931-10.317 36.882v161.667c0 23.879 14.618 51.135 34.001 63.416L409.751 660.41c7.206 4.582 20.688 9.203 34.568 9.203 13.34 0 25.409-3.182 34.905-9.195l161.43-102.26c19.375-12.281 33.985-39.537 33.985-63.416V333.075c0-8.529-3.155-23.375-10.082-35.807zm-23.899 32.924c1.325-.842 2.391-1.305 3.138-1.542.266.904.527 2.398.527 4.425v161.667c0 2.742-.449 5.701-1.22 8.719l-49.53-31.332V368.802c0-2.187-.334-5.03-1.001-8.146l48.086-30.464zM315.05 473.527V372.472l94.714 59.995c10.224 6.484 19.54 24.017 19.54 36.791v92.455l-101.595-64.35c-6.627-4.191-12.659-15.558-12.659-23.836zm116.911-194.652c3.003-1.903 7.567-3.036 12.207-3.036 4.622 0 9.178 1.133 12.181 3.028l103.659 65.67-96.723 61.296c-4.656 2.942-11.7 4.698-18.842 4.698-7.129 0-14.16-1.752-18.802-4.683l-97.02-61.464 103.34-65.509zm27.701 190.383c0-12.774 9.322-30.311 19.562-36.797l94.71-60v101.066c0 8.277-6.036 19.639-12.666 23.836l-101.606 64.365v-92.47zM624.229 296.51c2.857 1.819 3.75 3.379 3.836 3.546-.085.404-.979 1.965-3.819 3.776l-46.549 29.498c-2.634-2.635-5.01-4.516-6.481-5.453l-104.572-66.253c-2.11-1.334-4.494-2.38-6.981-3.284v-65.724c1.126.495 2.192 1.027 3.138 1.625L624.229 296.51zm-360.016-.237l160.936-102.021c1.228-.776 2.631-1.465 4.155-2.066v65.936c-2.731.943-5.341 2.066-7.634 3.517l-104.274 66.085c-1.564.999-3.924 2.865-6.482 5.441l-46.7-29.585c-2.857-1.808-3.76-3.375-3.847-3.532.068-.324.923-1.931 3.846-3.775zm-19.549 36.802c0-2.11.266-3.561.521-4.425.689.219 1.724.653 3.111 1.535l48.104 30.471c-.654 3.102-.993 5.938-.993 8.146v104.726c0 .113.013.225.013.34l-49.137 31.115c-1.033-3.543-1.618-7.041-1.618-10.24V333.075zm184.115 302.28c-.748-.24-1.81-.703-3.138-1.549L264.209 531.545a26.4 26.4 0 0 1-1.478-1.033l43.006-27.24c3.35 4.609 7.328 8.563 11.693 11.33l104.557 66.238c1.863 1.184 4.397 2.363 7.317 3.363v46.738c0 2.02-.262 3.514-.525 4.414zm34.575-1.556c-1.336.84-2.415 1.309-3.162 1.549-.266-.902-.53-2.387-.53-4.406V584.24c2.61-.916 5.11-1.994 7.328-3.4l104.568-66.238c4.74-3.004 9.036-7.396 12.553-12.525l43.379 27.443c-.896.748-1.804 1.443-2.723 2.025L463.354 633.799zM964.447 287.303c5.248-1.068 11.179-1.943 16.525-2.625V167.146c-5.347-.583-10.402-1.265-15.65-2.526-.293-2.919 0-5.93.874-8.85h55.606c35.191 0 62.994 13.417 62.994 63.093v7.975c0 50.843-24.107 69.701-66.883 69.701h-52.885l-.581-9.236zm54.924-1.943h4.862c30.038 0 41.898-22.165 41.898-57.746v-7.388c0-40.152-15.75-52.107-53.08-53.273l-14.679.193v117.533l20.999.681zm87.339 3.598c4.862-1.655 11.179-2.333 16.04-3.208v-70.97h-16.524l-1.072-8.361c5.056-1.943 16.723-5.055 22.653-5.055 11.277 0 11.084 6.418 11.277 10.402v73.984l16.719 2.916c.291 2.625 0 5.639-.875 7.873h-47.344l-.874-7.581zm10.985-120.839c0-8.555 5.055-11.183 11.376-11.183 6.123 0 11.179 2.628 11.179 11.183s-5.056 11.179-11.179 11.179c-6.321 0-11.376-2.625-11.376-11.179zm69.14 114.617l5.64-12.152c-17.012-3.015-25.18-15.651-25.18-34.025 0-25.277 19.54-35.195 41.22-35.195 10.111 0 18.083 2.336 23.819 6.513 4.765-4.957 15.068-8.748 24.888-7.191v13.609h-10.11c-2.917 0-5.64.099-8.169.39 3.598 5.249 5.347 11.762 5.347 19.15 0 24.789-15.844 37.43-41.022 37.43h-1.458l-1.849 9.914c-1.358 7.778 4.374 8.751 10.986 8.555 36.648-.776 45.787 4.181 45.787 26.053 0 28.583-28.481 41.027-54.342 41.027-15.557-.292-35.097-6.127-35.097-29.261 0-9.918 6.32-23.626 22.168-29.651-1.848-1.848-7.001-5.253-2.628-15.166zm22.847 61.635c19.056 0 30.624-6.903 30.624-23.914 0-17.988-8.555-17.5-20.805-17.791-7.778-.197-14.485 0-21.097-1.753-7.191 4.181-14.193 9.917-14.678 23.918-.485 14.677 12.542 19.54 25.956 19.54zm18.373-107.328c0-21.191-9.429-25.762-22.357-25.762-11.183 0-21.971 3.696-21.971 25.762 0 18.275 9.236 24.11 21.971 24.11 11.569.001 22.357-6.709 22.357-24.11zm40.663 51.915c4.861-1.655 11.179-2.333 16.04-3.208v-70.97h-16.525l-1.071-8.361c5.056-1.943 16.723-5.055 22.653-5.055 11.277 0 11.083 6.418 11.277 10.402v73.984l16.719 2.916c.291 2.625 0 5.639-.875 7.873h-47.344l-.874-7.581zm10.985-120.839c0-8.555 5.055-11.183 11.376-11.183 6.123 0 11.179 2.628 11.179 11.183s-5.056 11.179-11.179 11.179c-6.321 0-11.376-2.625-11.376-11.179zm61.657 46.176h-13.319c-.488-3.207-.291-5.737.387-8.944l12.933-1.167 4.181-26.636h11.663v26.636h29.167c.386 3.401.386 6.612 0 10.111h-29.167v50.066c0 20.513 1.363 22.941 12.152 22.941 5.055 0 14.098-1.75 18.374-3.692l3.014 8.361c-8.069 4.764-19.347 7.388-28.095 7.388-22.456 0-21.289-15.75-21.289-35.873v-49.191zm59.317 60.564c1.166-22.842 20.903-28.094 48.024-29.553l6.612-.484V234.71c-.193-17.499-4.765-19.93-19.931-19.93-8.747 0-16.817 2.238-24.981 5.249l-3.988-9.43c3.5-1.749 16.042-9.236 33.151-9.236 24.985 0 31.79 8.558 31.79 34.028v50.842h18.181l.678 8.07c-3.109 1.36-15.067 5.056-22.357 5.056-10.891 0-11.376-6.71-11.376-10.694v-4.571h-.192c-6.222 6.32-18.182 15.265-31.89 15.265-10.694 0-23.721-4.181-23.721-22.555v-1.945zm28.972 11.569c6.415 0 15.845-2.526 25.664-10.111v-22.941l-7.581.682c-20.612 1.844-30.333 8.066-30.333 20.608 0 9.236 6.029 11.762 12.25 11.762zm69.439 2.53c4.863-1.363 10.793-2.333 15.651-3.208V153.634h-17.983l-1.166-8.558c3.207-1.359 17.01-5.052 24.402-5.052 10.789 0 11.178 6.707 11.178 10.69V285.75l16.818 2.916c.484 2.818 0 5.639-.683 7.873h-47.343l-.874-7.581zm-448.486 123.48c10.19-6.386 16.328-17.853 16.328-31.094 0-24.286-13.979-35.115-45.32-35.115H964.9l-.534.962c-.676 1.221-1.399 3.984-1.399 6.156 0 1.841.045 3.142.27 3.918l.324 1.123 15.254 2.65v113.764l-.701.102c-4.625.66-9.868 1.404-14.287 2.963l-1.375.484 1.172 12.379h56.43c38.942 0 56.307-13.289 56.307-43.086-.002-18.836-8.878-30.912-25.759-35.206zm-32.007-3.99l-18.548.434v-47.569l12.338-.168c27.915 0 33.021 7.129 33.021 21.173 0 16.959-8.791 25.51-26.811 26.13zm-18.548 14.47l14.492-.432c29.25.005 39.615 6.592 39.615 25.158v1.458c0 20.083-7.997 26.921-31.67 27.103-3.084 0-6.273 0-19.578-.67l-2.859-.244v-52.373zm182.218 53.777v-72.603c0-3.033 0-12.269-13.144-12.269-7.606 0-19.865 3.718-23.462 5.197l-1.338.551 1.589 11.401h16.581v59.542c-7.09 3.799-18.6 7.707-25.883 7.707l-.706-.016c-11.026-.174-14.012-2.275-14.012-16.7v-55.413c0-3.033 0-12.269-13.238-12.269-5.172 0-12.279 1.848-21.125 5.489l-1.346.554 1.607 11.106h14.234v51.409c0 24.799 6.65 33.166 26.363 33.166 14.63 0 28.63-8.648 34.782-13.033v.479c0 3.432 0 12.555 13.049 12.555 7.625 0 19.901-3.768 23.279-5.201l1.243-.523-.933-11.127h-17.54zm86.628-35.269c-9.134-4.824-16.519-7.771-22.452-10.137-3.227-1.287-6.011-2.395-8.613-3.596-6.837-3.332-7.993-6.015-7.993-10.768 0-4.917 1.581-11.452 15.246-11.452 4.858 0 12.838 1.476 16.777 3.452l1.214 16.674 11.759.652.48-1.283c3.528-9.443 4.108-20.371 4.386-25.623l.207-3.372-1.49-.394c-9.47-2.493-19.934-3.758-31.099-3.758-23.145 0-35.891 9.986-35.891 28.116 0 12.105 4.979 19.508 16.125 23.988 7.895 3.254 23.079 9.805 29.982 13.73 6.065 3.188 5.329 10.691 4.957 12.924-1.367 8.377-10.172 9.027-12.841 9.027-8.959 0-16.486-1.785-22.974-5.455-.204-4.115-.568-10.611-1.968-15.459l-.405-1.393-12.426.384-.575 3.728c-1.349 8.789-2.184 14.217-3.262 22.143l-.175 1.271 1.125.617c7.141 3.914 22.956 8.102 35.119 8.102 9.55 0 38.613 0 38.613-29.277.002-10.255-4.649-17.939-13.826-22.841zm80.763 37.969l-16.552-2.889-.003-72.506-.022-.481c-.174-4.086-.506-11.696-13.117-11.696-6.47 0-18.622 3.372-23.323 5.179l-1.367.529 1.465 11.441h16.304v67.526c-.795.131-1.618.262-2.456.393-4.018.635-8.569 1.35-12.32 2.625l-1.425.484 1.239 10.73h50.277l.467-1.184c.958-2.449 1.327-5.723.991-8.762l-.158-1.389zm-28.43-105.906c8.412 0 13.045-4.633 13.045-13.045 0-8.416-4.633-13.048-13.045-13.048-8.54 0-13.241 4.632-13.241 13.048-.001 8.412 4.701 13.045 13.241 13.045zm151.342 105.868l-14.915-2.564v-51.798c0-25.419-6.772-33.172-28.987-33.172-10.953 0-20.729 3.229-31.307 10.402-.393-4.213-2.132-10.402-13.026-10.402-7.647 0-20.229 3.7-23.688 5.212l-1.298.568 1.587 11.369h16.478v67.547l-.608.113c-4.247.783-9.062 1.668-13.201 2.857l-1.521.434 1.246 10.807h47.865l.532-.955c.721-1.293 1.309-3.971 1.309-5.967 0-1.014 0-2.273-.256-3.277l-.291-1.15-15.01-2.855V414.25c9.145-3.998 16.904-5.569 27.3-5.569 9.036 0 12.813 2.401 12.813 17.287v50.851c-3.882.738-7.553 1.439-11.78 2.674l-1.47.432.966 10.807h45.772l.532-.955c.605-1.086 1.502-3.732 1.502-5.967 0-1.01 0-2.271-.248-3.27l-.296-1.183zm86.858-6.935c-2.209.77-16.333 4.951-25.732 4.951-27.074 0-28.879-12.244-28.948-37.695l60.257-.486.012-1.837c.123-19.277-2.68-30.373-9.371-37.104-5.712-5.748-14.416-8.427-27.396-8.427-12.83 0-23.042 3.725-30.351 11.073-9.135 9.181-13.712 24.041-13.61 44.176.197 38.574 17.794 46.475 44.154 46.475 21.979 0 35.881-9.496 36.008-9.596l1.167-.854-4.506-11.258-1.684.582zm-53.894-45.969c1.815-15.629 7.574-20.979 22.034-20.979 5.963 0 15.825 0 16.919 19.572l-38.953 1.407zm133.37 14.973c-9.135-4.824-16.519-7.771-22.453-10.137-3.225-1.287-6.01-2.395-8.612-3.596-6.838-3.332-7.993-6.015-7.993-10.768 0-4.917 1.582-11.452 15.246-11.452 4.859 0 12.837 1.476 16.777 3.452l1.215 16.674 11.758.652.481-1.283c3.528-9.443 4.107-20.374 4.384-25.626l.209-3.368-1.491-.394c-9.47-2.493-19.935-3.758-31.099-3.758-23.145 0-35.891 9.986-35.891 28.116 0 12.107 4.979 19.508 16.125 23.988 7.895 3.254 23.079 9.805 29.982 13.73 6.065 3.188 5.328 10.691 4.957 12.924-1.366 8.377-10.173 9.027-12.841 9.027-8.959 0-16.485-1.785-22.974-5.455-.204-4.115-.565-10.611-1.968-15.459l-.405-1.393-12.425.384-.576 3.735c-1.349 8.783-2.184 14.211-3.263 22.135l-.175 1.271 1.127.617c7.14 3.914 22.955 8.102 35.117 8.102 9.551 0 38.614 0 38.614-29.277.002-10.255-4.648-17.939-13.826-22.841zm87.131 0c-9.134-4.824-16.519-7.771-22.453-10.137-3.226-1.287-6.01-2.395-8.612-3.596-6.838-3.332-7.993-6.015-7.993-10.768 0-4.917 1.582-11.452 15.246-11.452 4.858 0 12.838 1.476 16.777 3.452l1.214 16.674 11.759.652.48-1.283c3.528-9.443 4.108-20.371 4.385-25.623l.208-3.372-1.49-.394c-9.47-2.493-19.934-3.758-31.099-3.758-23.145 0-35.892 9.986-35.892 28.116 0 12.105 4.979 19.508 16.126 23.988 7.895 3.254 23.079 9.805 29.982 13.73 6.065 3.188 5.329 10.691 4.957 12.924-1.367 8.377-10.173 9.027-12.841 9.027-8.959 0-16.486-1.785-22.974-5.455-.204-4.115-.568-10.611-1.969-15.459l-.404-1.393-12.426.384-.575 3.728c-1.349 8.789-2.184 14.217-3.263 22.143l-.174 1.271 1.126.617c7.141 3.914 22.955 8.102 35.118 8.102 9.549 0 38.613 0 38.613-29.277.002-10.255-4.648-17.939-13.826-22.841zm-688.892 166.258l-33.58-18.883c-10.762-5.887-14.395-10.689-14.395-19.02 0-14.117 10.982-17.08 20.193-17.08 7.801 0 16.063 1.971 23.49 5.576l1.633 20.189 3.1.439c4.525.65 6.406.756 12.592.326l3.021-.217.555-2.98c1.607-8.652 2.931-19.184 3.939-31.303l.248-2.941-2.759-1.045c-11.121-4.225-28.755-7.061-43.877-7.061-15.419 0-26.427 3.543-34.644 11.15-7.781 7.191-11.563 17.004-11.563 30 0 15.064 6.172 22.471 16.181 29.576 7.338 5.047 15.087 9.135 22.579 13.09 10.156 5.359 19.748 10.422 28.12 17.561 4.301 3.717 5.06 7.521 5.06 14.145 0 12.688-6.959 19.121-20.678 19.121-11.336 0-19.744-3.398-28.563-8.596-.438-3.168-.713-5.678-.971-8.004-.375-3.426-.73-6.662-1.51-10.994l-.515-2.867-4.528-.525c-3.84-.455-5.738-.688-10.609-.408l-3.415.197-2.874 36.795 1.892 1.275c7.749 5.234 28.494 12.531 44.677 12.531 8.891 0 21.994-.703 33.114-6.814 12.269-6.828 19.022-18.469 19.022-32.779.002-12.513.002-26.695-24.935-40.454zm112.615 52.726c-.146.041-.627.223-1.37.564-8.643 3.979-16.158 5.992-22.336 5.992-17.659 0-25.536-4.713-25.536-32.637 0-29.705 8.723-33.801 18.147-33.801 2.293 0 9.663.193 15.783 2.479l1.829 17.783 3.059.416c3.859.516 6.152.516 9.954.516h3.087l.722-2.998c.743-3.084 4.406-18.898 3.594-27.725l-.216-2.303-2.12-.926c-10.734-4.691-23.59-5.674-32.483-5.674-29.487 0-46.399 19.641-46.399 53.889 0 46.035 24.329 51.939 45.524 51.939 12.294 0 25.041-4.119 36.135-11.758l2.756-1.879-6.907-14.807-3.223.93zm129.306 9.77l-14.229-2.65v-50.21c0-26.338-7.833-35.223-31.043-35.223-9.969 0-19.369 2.732-29.134 8.535v-55.268c0-9.564-5.113-14.414-15.195-14.414-8.268 0-21.403 4.15-24.381 5.326l-2.84 1.121 1.899 14.801h16.348v124.844c-5.238.871-9.426 1.828-12.487 2.848l-3.059 1.021 1.822 14.195h50.729l1.102-2.096c1.425-2.711 2.012-6.75 1.469-10.043l-.441-2.65-14.966-3.111v-59.283c7.953-3.313 16.041-4.865 25.245-4.865 7.81 0 10.762 1.313 10.762 15.232v49.045c-4.613.889-8.036 1.738-10.413 2.576l-2.868 1.014 1.269 14.182h49.137l1.017-2.371c.867-2.02 2.188-6.787.991-10.371l-.734-2.185zm60.435-88.082c-32.278 0-52.329 20.275-52.329 52.916 0 22.715 4.669 52.912 45.04 52.912 32.341 0 52.428-20.273 52.428-52.912 0-13.09 0-52.916-45.139-52.916zm-3.692 87.593c-12.074 0-22.915-2.654-22.915-34.678 0-30.475 11.015-34.678 22.915-34.678 12.127 0 23.011 2.654 23.011 34.678-.001 30.475-11.06 34.678-23.011 34.678zm112.216-87.593c-32.279 0-52.33 20.275-52.33 52.916 0 22.715 4.669 52.912 45.04 52.912 32.341 0 52.428-20.273 52.428-52.912-.001-13.09-.001-52.916-45.138-52.916zm-3.694 87.593c-12.075 0-22.914-2.654-22.914-34.678 0-30.475 11.014-34.678 22.914-34.678 12.127 0 23.011 2.654 23.011 34.678 0 30.475-11.059 34.678-23.011 34.678zm114.719 2.961l-.47-2.725-16.292-2.83V535.365c0-9.695-5.077-14.613-15.098-14.613-7.981 0-22.28 3.816-25.934 5.367l-2.755 1.17 2.03 14.91h17.487v124.914c-4.191.746-8.791 1.6-12.789 2.723l-3.219.9 1.658 14.371h53.737l.846-2.773c1.047-3.422 1.314-6.68.799-9.682z"/></svg>